<svg width="40" height="40" viewBox="0 0 40 40" fill="none" xmlns="http://www.w3.org/2000/svg">
<mask id="mask0_241_966" style="mask-type:luminance" maskUnits="userSpaceOnUse" x="12" y="11" width="28" height="29">
<path d="M12.8 11.0344H40V39.9999H12.8V11.0344Z" fill="white"/>
</mask>
<g mask="url(#mask0_241_966)">
<mask id="mask1_241_966" style="mask-type:luminance" maskUnits="userSpaceOnUse" x="-3" y="-4" width="46" height="48">
<path d="M-2.51245 3.01718L32.725 -3.34058L42.475 36.8372L7.23755 43.1896L-2.51245 3.01718Z" fill="white"/>
</mask>
<g mask="url(#mask1_241_966)">
<mask id="mask2_241_966" style="mask-type:luminance" maskUnits="userSpaceOnUse" x="-3" y="-4" width="46" height="48">
<path d="M-2.51245 3.01718L32.725 -3.34058L42.475 36.8372L7.23755 43.1896L-2.51245 3.01718Z" fill="white"/>
</mask>
<g mask="url(#mask2_241_966)">
<path d="M39.3314 25.5657L15.7377 12.2683C15.4002 12.0743 14.9689 12.0797 14.6314 12.2737C14.3002 12.473 14.1377 12.8233 14.2189 13.1627L19.8689 36.4439C19.9502 36.7672 20.2314 37.0205 20.6002 37.1013C20.9689 37.1821 21.3627 37.0743 21.6064 36.8265L25.7502 32.5916L31.7002 38.5183C31.9439 38.7608 32.3127 38.8577 32.6564 38.7985C32.8064 38.7715 32.9502 38.7177 33.0752 38.6314L38.3127 35.0539C38.5252 34.9084 38.6627 34.6929 38.6877 34.4612C38.7127 34.2241 38.6252 33.9924 38.4502 33.8146L32.8439 28.2327L38.9877 27.1228C39.3814 27.0528 39.6877 26.7834 39.7627 26.4439C39.8377 26.0991 39.6627 25.7543 39.3314 25.5657Z" fill="#FFFEFE"/>
</g>
</g>
</g>
<mask id="mask3_241_966" style="mask-type:luminance" maskUnits="userSpaceOnUse" x="11" y="0" width="5" height="9">
<path d="M11.2 0H16V8.27586H11.2V0Z" fill="white"/>
</mask>
<g mask="url(#mask3_241_966)">
<mask id="mask4_241_966" style="mask-type:luminance" maskUnits="userSpaceOnUse" x="-3" y="-4" width="46" height="48">
<path d="M-2.51245 3.01718L32.725 -3.34058L42.475 36.8372L7.23755 43.1896L-2.51245 3.01718Z" fill="white"/>
</mask>
<g mask="url(#mask4_241_966)">
<mask id="mask5_241_966" style="mask-type:luminance" maskUnits="userSpaceOnUse" x="-3" y="-4" width="46" height="48">
<path d="M-2.51245 3.01718L32.725 -3.34058L42.475 36.8372L7.23755 43.1896L-2.51245 3.01718Z" fill="white"/>
</mask>
<g mask="url(#mask5_241_966)">
<path d="M12.1311 0.371777C11.5936 0.46876 11.2499 0.921347 11.3624 1.38471L12.5874 6.4332C12.6999 6.89656 13.2249 7.1929 13.7624 7.09591C14.2999 6.99893 14.6499 6.54635 14.5374 6.08298L13.3124 1.03449C13.1999 0.57113 12.6686 0.274795 12.1311 0.371777Z" fill="#FFFEFE"/>
</g>
</g>
</g>
<mask id="mask6_241_966" style="mask-type:luminance" maskUnits="userSpaceOnUse" x="0" y="12" width="10" height="5">
<path d="M0 12.4138H9.6V16.5517H0V12.4138Z" fill="white"/>
</mask>
<g mask="url(#mask6_241_966)">
<mask id="mask7_241_966" style="mask-type:luminance" maskUnits="userSpaceOnUse" x="-3" y="-4" width="46" height="48">
<path d="M-2.51245 3.01718L32.725 -3.34058L42.475 36.8372L7.23755 43.1896L-2.51245 3.01718Z" fill="white"/>
</mask>
<g mask="url(#mask7_241_966)">
<mask id="mask8_241_966" style="mask-type:luminance" maskUnits="userSpaceOnUse" x="-3" y="-4" width="46" height="48">
<path d="M-2.51245 3.01718L32.725 -3.34058L42.475 36.8372L7.23755 43.1896L-2.51245 3.01718Z" fill="white"/>
</mask>
<g mask="url(#mask8_241_966)">
<path d="M7.18759 13.5506L1.33133 14.6066C0.793835 14.7036 0.450085 15.1562 0.562584 15.6196C0.675085 16.0883 1.20634 16.3847 1.74384 16.2877L7.59384 15.2316C8.13133 15.1347 8.48133 14.6767 8.36258 14.2133C8.25008 13.75 7.72509 13.4536 7.18759 13.5506Z" fill="#FFFEFE"/>
</g>
</g>
</g>
<mask id="mask9_241_966" style="mask-type:luminance" maskUnits="userSpaceOnUse" x="20" y="9" width="11" height="5">
<path d="M20.8 9.65515H30.4V13.7931H20.8V9.65515Z" fill="white"/>
</mask>
<g mask="url(#mask9_241_966)">
<mask id="mask10_241_966" style="mask-type:luminance" maskUnits="userSpaceOnUse" x="-3" y="-4" width="46" height="48">
<path d="M-2.51245 3.01718L32.725 -3.34058L42.475 36.8372L7.23755 43.1896L-2.51245 3.01718Z" fill="white"/>
</mask>
<g mask="url(#mask10_241_966)">
<mask id="mask11_241_966" style="mask-type:luminance" maskUnits="userSpaceOnUse" x="-3" y="-4" width="46" height="48">
<path d="M-2.51245 3.01718L32.725 -3.34058L42.475 36.8372L7.23755 43.1896L-2.51245 3.01718Z" fill="white"/>
</mask>
<g mask="url(#mask11_241_966)">
<path d="M28.6436 9.67671L22.7936 10.7327C22.2499 10.8297 21.9061 11.2877 22.0186 11.7511C22.1311 12.2144 22.6624 12.5108 23.1999 12.4138L29.0499 11.3631C29.5874 11.2662 29.9374 10.8082 29.8249 10.3448C29.7124 9.88145 29.1811 9.57973 28.6436 9.67671Z" fill="#FFFEFE"/>
</g>
</g>
</g>
<mask id="mask12_241_966" style="mask-type:luminance" maskUnits="userSpaceOnUse" x="1" y="5" width="9" height="7">
<path d="M1.6001 5.51721H9.6001V11.0345H1.6001V5.51721Z" fill="white"/>
</mask>
<g mask="url(#mask12_241_966)">
<mask id="mask13_241_966" style="mask-type:luminance" maskUnits="userSpaceOnUse" x="-3" y="-4" width="46" height="48">
<path d="M-2.51245 3.01718L32.725 -3.34058L42.475 36.8372L7.23755 43.1896L-2.51245 3.01718Z" fill="white"/>
</mask>
<g mask="url(#mask13_241_966)">
<mask id="mask14_241_966" style="mask-type:luminance" maskUnits="userSpaceOnUse" x="-3" y="-4" width="46" height="48">
<path d="M-2.51245 3.01718L32.725 -3.34058L42.475 36.8372L7.23755 43.1896L-2.51245 3.01718Z" fill="white"/>
</mask>
<g mask="url(#mask14_241_966)">
<path d="M9.06883 8.50214L4.06258 5.68425C3.60008 5.42563 2.98133 5.53339 2.68133 5.9321C2.38133 6.32542 2.51258 6.85882 2.96883 7.12283L7.97508 9.94072C8.20633 10.07 8.47508 10.1077 8.72508 10.0593C8.97508 10.0161 9.20633 9.89223 9.35633 9.69287C9.65633 9.29416 9.52508 8.76076 9.06883 8.50214Z" fill="#FFFEFE"/>
</g>
</g>
</g>
<mask id="mask15_241_966" style="mask-type:luminance" maskUnits="userSpaceOnUse" x="6" y="16" width="7" height="9">
<path d="M6.3999 16.5518H12.7999V24.8276H6.3999V16.5518Z" fill="white"/>
</mask>
<g mask="url(#mask15_241_966)">
<mask id="mask16_241_966" style="mask-type:luminance" maskUnits="userSpaceOnUse" x="-3" y="-4" width="46" height="48">
<path d="M-2.51245 3.01718L32.725 -3.34058L42.475 36.8372L7.23755 43.1896L-2.51245 3.01718Z" fill="white"/>
</mask>
<g mask="url(#mask16_241_966)">
<mask id="mask17_241_966" style="mask-type:luminance" maskUnits="userSpaceOnUse" x="-3" y="-4" width="46" height="48">
<path d="M-2.51245 3.01718L32.725 -3.34058L42.475 36.8372L7.23755 43.1896L-2.51245 3.01718Z" fill="white"/>
</mask>
<g mask="url(#mask17_241_966)">
<path d="M11.3749 18.0172C10.9187 17.7586 10.2999 17.8718 9.99366 18.2651L6.72491 22.5808C6.42491 22.9741 6.54991 23.5075 7.01241 23.7662C7.24366 23.8955 7.51241 23.9332 7.76241 23.8901C8.01241 23.8416 8.24366 23.7177 8.39366 23.5183L11.6624 19.208C11.9624 18.8093 11.8374 18.2759 11.3749 18.0172Z" fill="#FFFEFE"/>
</g>
</g>
</g>
<mask id="mask18_241_966" style="mask-type:luminance" maskUnits="userSpaceOnUse" x="17" y="1" width="7" height="8">
<path d="M17.6001 1.37927H24.0001V8.27582H17.6001V1.37927Z" fill="white"/>
</mask>
<g mask="url(#mask18_241_966)">
<mask id="mask19_241_966" style="mask-type:luminance" maskUnits="userSpaceOnUse" x="-3" y="-4" width="46" height="48">
<path d="M-2.51245 3.01718L32.725 -3.34058L42.475 36.8372L7.23755 43.1896L-2.51245 3.01718Z" fill="white"/>
</mask>
<g mask="url(#mask19_241_966)">
<mask id="mask20_241_966" style="mask-type:luminance" maskUnits="userSpaceOnUse" x="-3" y="-4" width="46" height="48">
<path d="M-2.51245 3.01718L32.725 -3.34058L42.475 36.8372L7.23755 43.1896L-2.51245 3.01718Z" fill="white"/>
</mask>
<g mask="url(#mask20_241_966)">
<path d="M23.3752 2.19829C22.9127 1.93967 22.2939 2.04743 21.9939 2.44614L18.7189 6.76187C18.4189 7.16057 18.5502 7.68859 19.0064 7.9526C19.2377 8.07652 19.5127 8.11424 19.7564 8.07113C20.0064 8.02803 20.2377 7.89872 20.3877 7.69937L23.6627 3.38902C23.9627 2.99032 23.8377 2.45691 23.3752 2.19829Z" fill="#FFFEFE"/>
</g>
</g>
</g>
</svg>
