<svg width="37" height="39" viewBox="0 0 37 39" fill="none" xmlns="http://www.w3.org/2000/svg">
<path fill-rule="evenodd" clip-rule="evenodd" d="M34.9576 0H2.0424C0.9139 0 0 0.9633 0 2.1528V36.8472C0 38.0367 0.9139 39 2.0424 39H19.7617V23.8973H14.9406V18.0122H19.7617V13.6695C19.7617 8.6307 22.681 5.889 26.9452 5.889C28.9876 5.889 30.7414 6.0489 31.2539 6.12105V11.3861H28.2976C25.9777 11.3861 25.53 12.5483 25.53 14.2526V18.0102H31.0597L30.3382 23.8953H25.5282V39H34.9576C36.0861 39 37 38.0367 37 36.8472V2.1528C37 0.9633 36.0861 0 34.9576 0Z" fill="black"/>
</svg>
