<svg width="5490" height="2976" viewBox="0 0 5490 2976" fill="none" xmlns="http://www.w3.org/2000/svg">
<rect width="5490" height="2976" fill="#F58F32"/>
<path d="M2540.85 1689L2344.56 1365.03H2458.58L2655.6 1689H2540.85ZM2655.6 1658.24L2561.61 1503.45V1365.03H2655.6V1658.24ZM2344.56 1689V1395.79L2438.56 1549.84V1689H2344.56ZM3022.58 1689L3008.91 1653.6H2902.95L2925.41 1589.39H2984.01L2897.34 1365.03H3002.56L3131.71 1689H3022.58ZM2769.9 1689L2885.62 1379.67L2933.47 1508.34L2874.14 1689H2769.9ZM3297.52 1689L3180.34 1365.03H3290.44L3402.5 1689H3297.52ZM3415.69 1679.23L3367.1 1536.66L3419.35 1365.03H3527.75L3415.69 1679.23ZM3831.5 1689L3639.36 1365.03H3754.11L3841.02 1509.07L3909.38 1391.88V1554.97L3831.5 1689ZM3925.25 1689V1365.03H4033.16V1689H3925.25ZM3639.12 1689V1395.05L3739.95 1564.24V1689H3639.12ZM4168.45 1689V1619.91H4200.92V1433.87H4168.45V1365.03H4341.3V1433.87H4308.83V1619.91H4341.3V1689H4168.45Z" fill="black"/>
<rect width="5490" height="2976" fill="#F58F32"/>
<path d="M1747.49 1000L1108.1 1329.4L1644.04 1383.29L1747.49 1000Z" fill="black"/>
<path d="M2175.93 1383.29L1800.48 1006.61L1732.35 1265.86L2175.93 1383.29Z" fill="black"/>
<path d="M1722.26 1304.49L2173.92 1424.97L1526.45 1756.91L1514.34 1410.74L1687.44 1427L1722.26 1304.49Z" fill="black"/>
<path d="M1460.35 1405.15L1097 1367.53L1471.45 1744.71L1460.35 1405.15Z" fill="black"/>
<path d="M1139.39 1425.48L1111.13 1440.22L1159.07 1445.3L1139.39 1425.48Z" fill="black"/>
<path d="M1202.47 1489.02L1100.03 1478.35L1474.48 1855.53L1471.45 1759.46L1202.47 1489.02Z" fill="black"/>
<path d="M1140.9 1534.77L1115.17 1547.99L1158.57 1552.56L1140.9 1534.77Z" fill="black"/>
<path d="M1201.97 1596.28L1104.07 1586.11L1478.51 1963.3L1475.49 1871.29L1201.97 1596.28Z" fill="black"/>
<path d="M1529.48 1867.73L1525.95 1769.11L2048.26 1501.22L2176.94 1535.79L1529.48 1867.73Z" fill="black"/>
<path d="M2055.32 1610.01L1529.99 1879.42L1533.52 1975.5L2180.98 1643.56L2055.32 1610.01Z" fill="black"/>
<path d="M2139.6 1454.45L2102.26 1473.77L2178.96 1494.1L2139.6 1454.45Z" fill="black"/>
<path d="M2145.15 1563.75L2109.32 1582.05L2183 1601.87L2145.15 1563.75Z" fill="black"/>
<path d="M1747.49 1000L1108.1 1329.4L1644.04 1383.29L1747.49 1000Z" stroke="black"/>
<path d="M2175.93 1383.29L1800.48 1006.61L1732.35 1265.86L2175.93 1383.29Z" stroke="black"/>
<path d="M1722.26 1304.49L2173.92 1424.97L1526.45 1756.91L1514.34 1410.74L1687.44 1427L1722.26 1304.49Z" stroke="black"/>
<path d="M1460.35 1405.15L1097 1367.53L1471.45 1744.71L1460.35 1405.15Z" stroke="black"/>
<path d="M1139.39 1425.48L1111.13 1440.22L1159.07 1445.3L1139.39 1425.48Z" stroke="black"/>
<path d="M1202.47 1489.02L1100.03 1478.35L1474.48 1855.53L1471.45 1759.46L1202.47 1489.02Z" stroke="black"/>
<path d="M1140.9 1534.77L1115.17 1547.99L1158.57 1552.56L1140.9 1534.77Z" stroke="black"/>
<path d="M1201.97 1596.28L1104.07 1586.11L1478.51 1963.3L1475.49 1871.29L1201.97 1596.28Z" stroke="black"/>
<path d="M1529.48 1867.73L1525.95 1769.11L2048.26 1501.22L2176.94 1535.79L1529.48 1867.73Z" stroke="black"/>
<path d="M2055.32 1610.01L1529.99 1879.42L1533.52 1975.5L2180.98 1643.56L2055.32 1610.01Z" stroke="black"/>
<path d="M2139.6 1454.45L2102.26 1473.77L2178.96 1494.1L2139.6 1454.45Z" stroke="black"/>
<path d="M2145.15 1563.75L2109.32 1582.05L2183 1601.87L2145.15 1563.75Z" stroke="black"/>
<path d="M3790 1259.9H3815.74V1277.02L3901.13 1374.01V1259.8H3926.84V1205H3790V1259.9Z" fill="black"/>
<path d="M3815.74 1296.53L3901.26 1393.28V1408.02H3927L3926.84 1462.96H3790V1408.02H3815.74V1296.53Z" fill="black"/>
<path d="M3790 1259.9H3815.74V1277.02L3901.13 1374.01V1259.8H3926.84V1205H3790V1259.9Z" stroke="black"/>
<path d="M3815.74 1296.53L3901.26 1393.28V1408.02H3927L3926.84 1462.96H3790V1408.02H3815.74V1296.53Z" stroke="black"/>
<path d="M2433.27 1201H2343L2498.61 1459H2589.28L2433.27 1201Z" fill="black"/>
<path d="M2417.44 1348.31L2343 1225.69V1459H2417.44V1348.31Z" fill="black"/>
<path d="M2589.33 1201H2514.84V1311.29L2589.33 1434.47V1201Z" fill="black"/>
<path d="M2809.42 1315.27L2771.41 1212.55L2679.85 1459H2762.3L2809.42 1315.27Z" fill="black"/>
<path d="M2849.41 1379.77L2780.91 1201H2864.06L2966.61 1459H2966.21H2879.9L2869.21 1430.73H2785.27L2803.09 1379.77H2849.41Z" fill="black"/>
<path d="M3092.12 1201H3005.02L3097.67 1459H3180.82L3092.12 1201Z" fill="black"/>
<path d="M3280 1201H3194.28L3152.7 1337.56L3191.11 1451.44L3280 1201Z" fill="black"/>
<path d="M3448.08 1359.46L3368.1 1224.89V1459L3448.08 1458.96V1359.46Z" fill="black"/>
<path d="M3459.16 1201H3368.49L3520.53 1459L3582.3 1352.3V1222.5L3528.06 1315.67L3459.16 1201Z" fill="black"/>
<path d="M3680.5 1201H3594.97L3594.82 1459H3680.1L3680.5 1201Z" fill="black"/>
<path d="M2433.27 1201H2343L2498.61 1459H2589.28L2433.27 1201Z" stroke="black"/>
<path d="M2417.44 1348.31L2343 1225.69V1459H2417.44V1348.31Z" stroke="black"/>
<path d="M2589.33 1201H2514.84V1311.29L2589.33 1434.47V1201Z" stroke="black"/>
<path d="M2809.42 1315.27L2771.41 1212.55L2679.85 1459H2762.3L2809.42 1315.27Z" stroke="black"/>
<path d="M2849.41 1379.77L2780.91 1201H2864.06L2966.61 1459H2966.21H2879.9L2869.21 1430.73H2785.27L2803.09 1379.77H2849.41Z" stroke="black"/>
<path d="M3092.12 1201H3005.02L3097.67 1459H3180.82L3092.12 1201Z" stroke="black"/>
<path d="M3280 1201H3194.28L3152.7 1337.56L3191.11 1451.44L3280 1201Z" stroke="black"/>
<path d="M3448.08 1359.46L3368.1 1224.89V1459L3448.08 1458.96V1359.46Z" stroke="black"/>
<path d="M3459.16 1201H3368.49L3520.53 1459L3582.3 1352.3V1222.5L3528.06 1315.67L3459.16 1201Z" stroke="black"/>
<path d="M3680.5 1201H3594.97L3594.82 1459H3680.1L3680.5 1201Z" stroke="black"/>
<rect width="5490" height="2976" fill="black"/>
<path d="M2540.85 1689L2344.56 1365.03H2458.58L2655.6 1689H2540.85ZM2655.6 1658.24L2561.61 1503.45V1365.03H2655.6V1658.24ZM2344.56 1689V1395.79L2438.56 1549.84V1689H2344.56ZM3022.58 1689L3008.91 1653.6H2902.95L2925.41 1589.39H2984.01L2897.34 1365.03H3002.56L3131.71 1689H3022.58ZM2769.9 1689L2885.62 1379.67L2933.47 1508.34L2874.14 1689H2769.9ZM3297.52 1689L3180.34 1365.03H3290.44L3402.5 1689H3297.52ZM3415.69 1679.23L3367.1 1536.66L3419.35 1365.03H3527.75L3415.69 1679.23ZM3831.5 1689L3639.36 1365.03H3754.11L3841.02 1509.07L3909.38 1391.88V1554.97L3831.5 1689ZM3925.25 1689V1365.03H4033.16V1689H3925.25ZM3639.12 1689V1395.05L3739.95 1564.24V1689H3639.12ZM4168.45 1689V1619.91H4200.92V1433.87H4168.45V1365.03H4341.3V1433.87H4308.83V1619.91H4341.3V1689H4168.45Z" fill="black"/>
<rect width="5490" height="2976" fill="black"/>
<path d="M1775.49 936L1136.1 1265.4L1672.04 1319.29L1775.49 936Z" fill="#F58F32"/>
<path d="M2203.93 1319.29L1828.48 942.608L1760.35 1201.86L2203.93 1319.29Z" fill="#F58F32"/>
<path d="M1750.26 1240.49L2201.92 1360.97L1554.45 1692.91L1542.34 1346.74L1715.44 1363L1750.26 1240.49Z" fill="#F58F32"/>
<path d="M1488.35 1341.15L1125 1303.53L1499.45 1680.71L1488.35 1341.15Z" fill="#F58F32"/>
<path d="M1167.39 1361.48L1139.13 1376.22L1187.07 1381.3L1167.39 1361.48Z" fill="#F58F32"/>
<path d="M1230.47 1425.02L1128.03 1414.35L1502.48 1791.53L1499.45 1695.46L1230.47 1425.02Z" fill="#F58F32"/>
<path d="M1168.9 1470.77L1143.17 1483.99L1186.57 1488.56L1168.9 1470.77Z" fill="#F58F32"/>
<path d="M1229.97 1532.28L1132.07 1522.11L1506.51 1899.3L1503.49 1807.29L1229.97 1532.28Z" fill="#F58F32"/>
<path d="M1557.48 1803.73L1553.95 1705.11L2076.26 1437.22L2204.94 1471.79L1557.48 1803.73Z" fill="#F58F32"/>
<path d="M2083.32 1546.01L1557.99 1815.42L1561.52 1911.5L2208.98 1579.56L2083.32 1546.01Z" fill="#F58F32"/>
<path d="M2167.6 1390.45L2130.26 1409.77L2206.96 1430.1L2167.6 1390.45Z" fill="#F58F32"/>
<path d="M2173.15 1499.75L2137.32 1518.05L2211 1537.87L2173.15 1499.75Z" fill="#F58F32"/>
<path d="M1775.49 936L1136.1 1265.4L1672.04 1319.29L1775.49 936Z" stroke="black"/>
<path d="M2203.93 1319.29L1828.48 942.608L1760.35 1201.86L2203.93 1319.29Z" stroke="black"/>
<path d="M1750.26 1240.49L2201.92 1360.97L1554.45 1692.91L1542.34 1346.74L1715.44 1363L1750.26 1240.49Z" stroke="black"/>
<path d="M1488.35 1341.15L1125 1303.53L1499.45 1680.71L1488.35 1341.15Z" stroke="black"/>
<path d="M1167.39 1361.48L1139.13 1376.22L1187.07 1381.3L1167.39 1361.48Z" stroke="black"/>
<path d="M1230.47 1425.02L1128.03 1414.35L1502.48 1791.53L1499.45 1695.46L1230.47 1425.02Z" stroke="black"/>
<path d="M1168.9 1470.77L1143.17 1483.99L1186.57 1488.56L1168.9 1470.77Z" stroke="black"/>
<path d="M1229.97 1532.28L1132.07 1522.11L1506.51 1899.3L1503.49 1807.29L1229.97 1532.28Z" stroke="black"/>
<path d="M1557.48 1803.73L1553.95 1705.11L2076.26 1437.22L2204.94 1471.79L1557.48 1803.73Z" stroke="black"/>
<path d="M2083.32 1546.01L1557.99 1815.42L1561.52 1911.5L2208.98 1579.56L2083.32 1546.01Z" stroke="black"/>
<path d="M2167.6 1390.45L2130.26 1409.77L2206.96 1430.1L2167.6 1390.45Z" stroke="black"/>
<path d="M2173.15 1499.75L2137.32 1518.05L2211 1537.87L2173.15 1499.75Z" stroke="black"/>
<path d="M3790 1259.9H3815.74V1277.02L3901.13 1374.01V1259.8H3926.84V1205H3790V1259.9Z" fill="#F58F32"/>
<path d="M3815.74 1296.53L3901.26 1393.28V1408.02H3927L3926.84 1462.96H3790V1408.02H3815.74V1296.53Z" fill="#F58F32"/>
<path d="M3790 1259.9H3815.74V1277.02L3901.13 1374.01V1259.8H3926.84V1205H3790V1259.9Z" stroke="black"/>
<path d="M3815.74 1296.53L3901.26 1393.28V1408.02H3927L3926.84 1462.96H3790V1408.02H3815.74V1296.53Z" stroke="black"/>
<path d="M2433.27 1201H2343L2498.61 1459H2589.28L2433.27 1201Z" fill="#F58F32"/>
<path d="M2417.44 1348.31L2343 1225.69V1459H2417.44V1348.31Z" fill="#F58F32"/>
<path d="M2589.33 1201H2514.84V1311.29L2589.33 1434.47V1201Z" fill="#F58F32"/>
<path d="M2809.42 1315.27L2771.41 1212.55L2679.85 1459H2762.3L2809.42 1315.27Z" fill="#F58F32"/>
<path d="M2849.41 1379.77L2780.91 1201H2864.06L2966.61 1459H2966.21H2879.9L2869.21 1430.73H2785.27L2803.09 1379.77H2849.41Z" fill="#F58F32"/>
<path d="M3092.12 1201H3005.02L3097.67 1459H3180.82L3092.12 1201Z" fill="#F58F32"/>
<path d="M3280 1201H3194.28L3152.7 1337.56L3191.11 1451.44L3280 1201Z" fill="#F58F32"/>
<path d="M3448.08 1359.46L3368.1 1224.89V1459L3448.08 1458.96V1359.46Z" fill="#F58F32"/>
<path d="M3459.16 1201H3368.49L3520.53 1459L3582.3 1352.3V1222.5L3528.06 1315.67L3459.16 1201Z" fill="#F58F32"/>
<path d="M3680.5 1201H3594.97L3594.82 1459H3680.1L3680.5 1201Z" fill="#F58F32"/>
<path d="M2433.27 1201H2343L2498.61 1459H2589.28L2433.27 1201Z" stroke="black"/>
<path d="M2417.44 1348.31L2343 1225.69V1459H2417.44V1348.31Z" stroke="black"/>
<path d="M2589.33 1201H2514.84V1311.29L2589.33 1434.47V1201Z" stroke="black"/>
<path d="M2809.42 1315.27L2771.41 1212.55L2679.85 1459H2762.3L2809.42 1315.27Z" stroke="black"/>
<path d="M2849.41 1379.77L2780.91 1201H2864.06L2966.61 1459H2966.21H2879.9L2869.21 1430.73H2785.27L2803.09 1379.77H2849.41Z" stroke="black"/>
<path d="M3092.12 1201H3005.02L3097.67 1459H3180.82L3092.12 1201Z" stroke="black"/>
<path d="M3280 1201H3194.28L3152.7 1337.56L3191.11 1451.44L3280 1201Z" stroke="black"/>
<path d="M3448.08 1359.46L3368.1 1224.89V1459L3448.08 1458.96V1359.46Z" stroke="black"/>
<path d="M3459.16 1201H3368.49L3520.53 1459L3582.3 1352.3V1222.5L3528.06 1315.67L3459.16 1201Z" stroke="black"/>
<path d="M3680.5 1201H3594.97L3594.82 1459H3680.1L3680.5 1201Z" stroke="black"/>
<path d="M2423 1641.8V1654H2340.8V1528.6H2421.2V1540.4H2353.6V1584H2413.8V1595.4H2353.6V1641.8H2423ZM2762.46 1528.6V1654H2750.26V1548.2L2710.26 1628.6H2698.66L2658.66 1548V1654H2646.46V1528.6H2662.86L2704.66 1613.2L2746.46 1528.6H2762.46ZM2994.52 1654H2980.92L3031.32 1528.6H3044.72L3094.92 1654H3081.12L3068.32 1621H3007.52L2994.52 1654ZM3037.72 1540C3036.65 1543.33 3035.45 1547 3034.12 1551C3032.79 1555 3030.59 1561.2 3027.52 1569.6L3011.92 1609.6H3063.92L3048.32 1569.6C3046.32 1564.4 3044.39 1559.33 3042.52 1554.4C3040.79 1549.33 3039.19 1544.53 3037.72 1540ZM3326.06 1528.6V1654H3313.26V1528.6H3326.06ZM3633.4 1641.8V1654H3557.6V1528.6H3570.4V1641.8H3633.4ZM3901.71 1599.6L3869.91 1592C3861.64 1590 3855.71 1586.67 3852.11 1582C3848.51 1577.33 3846.71 1570.8 3846.71 1562.4C3846.71 1550 3850.24 1540.93 3857.31 1535.2C3864.38 1529.47 3875.58 1526.6 3890.91 1526.6C3897.31 1526.6 3903.04 1526.93 3908.11 1527.6C3913.31 1528.13 3917.98 1529 3922.11 1530.2V1542C3917.71 1540.8 3912.84 1539.93 3907.51 1539.4C3902.18 1538.73 3896.58 1538.4 3890.71 1538.4C3879.24 1538.4 3871.18 1540.13 3866.51 1543.6C3861.84 1546.93 3859.51 1552.87 3859.51 1561.4C3859.51 1567 3860.64 1571.2 3862.91 1574C3865.18 1576.8 3868.91 1578.8 3874.11 1580L3905.91 1587.8C3916.18 1590.2 3923.04 1593.67 3926.51 1598.2C3929.98 1602.6 3931.71 1609.4 3931.71 1618.6C3931.71 1632.07 3928.24 1641.6 3921.31 1647.2C3914.38 1652.67 3903.31 1655.4 3888.11 1655.4C3879.98 1655.4 3872.11 1654.87 3864.51 1653.8C3856.91 1652.73 3850.91 1651.33 3846.51 1649.6V1637.4C3853.18 1639.4 3859.98 1640.93 3866.91 1642C3873.84 1642.93 3880.91 1643.4 3888.11 1643.4C3899.31 1643.4 3907.18 1641.73 3911.71 1638.4C3916.24 1634.93 3918.51 1628.4 3918.51 1618.8C3918.51 1612.8 3917.38 1608.47 3915.11 1605.8C3912.84 1603.13 3908.38 1601.07 3901.71 1599.6Z" fill="#F58F32"/>
</svg>
