<svg width="38" height="38" viewBox="0 0 38 38" fill="none" xmlns="http://www.w3.org/2000/svg">
<path d="M20.6786 0C22.7879 0.005625 23.8586 0.016875 24.7829 0.043125L25.1467 0.0562499C25.5667 0.0712499 25.9811 0.0899999 26.4817 0.1125C28.4767 0.20625 29.8379 0.52125 31.0323 0.984375C32.2698 1.46063 33.3123 2.10562 34.3548 3.14625C35.3086 4.08325 36.0464 5.21714 36.5167 6.46875C36.9798 7.66312 37.2948 9.02437 37.3886 11.0212C37.4111 11.52 37.4298 11.9344 37.4448 12.3563L37.4561 12.72C37.4842 13.6425 37.4954 14.7131 37.4992 16.8225L37.5011 18.2213V20.6775C37.5056 22.0451 37.4913 23.4128 37.4579 24.78L37.4467 25.1437C37.4317 25.5656 37.4129 25.98 37.3904 26.4788C37.2967 28.4756 36.9779 29.835 36.5167 31.0312C36.0464 32.2829 35.3086 33.4168 34.3548 34.3538C33.4178 35.3076 32.2839 36.0453 31.0323 36.5156C29.8379 36.9788 28.4767 37.2938 26.4817 37.3875L25.1467 37.4437L24.7829 37.455C23.8586 37.4813 22.7879 37.4944 20.6786 37.4981L19.2798 37.5H16.8254C15.4572 37.5048 14.0889 37.4904 12.7211 37.4569L12.3573 37.4456C11.9122 37.4288 11.4672 37.4094 11.0223 37.3875C9.02732 37.2938 7.66607 36.9788 6.46982 36.5156C5.21887 36.0451 4.08565 35.3073 3.14919 34.3538C2.19471 33.4169 1.45627 32.283 0.985442 31.0312C0.522317 29.8369 0.207316 28.4756 0.113566 26.4788L0.0573164 25.1437L0.0479417 24.78C0.013378 23.4128 -0.00224868 22.0452 0.00106649 20.6775V16.8225C-0.00412331 15.4549 0.00962815 14.0872 0.0423166 12.72L0.0554416 12.3563C0.0704416 11.9344 0.0891915 11.52 0.111692 11.0212C0.205442 9.02437 0.520441 7.665 0.983566 6.46875C1.45549 5.21662 2.19524 4.08269 3.15107 3.14625C4.08698 2.1929 5.21954 1.45514 6.46982 0.984375C7.66607 0.52125 9.02544 0.20625 11.0223 0.1125C11.5211 0.0899999 11.9373 0.0712499 12.3573 0.0562499L12.7211 0.0449999C14.0883 0.0116863 15.4559 -0.00269006 16.8236 0.00187486L20.6786 0ZM18.7511 9.375C16.2647 9.375 13.8801 10.3627 12.1219 12.1209C10.3638 13.879 9.37607 16.2636 9.37607 18.75C9.37607 21.2364 10.3638 23.621 12.1219 25.3791C13.8801 27.1373 16.2647 28.125 18.7511 28.125C21.2375 28.125 23.622 27.1373 25.3802 25.3791C27.1383 23.621 28.1261 21.2364 28.1261 18.75C28.1261 16.2636 27.1383 13.879 25.3802 12.1209C23.622 10.3627 21.2375 9.375 18.7511 9.375ZM18.7511 13.125C19.4898 13.1249 20.2212 13.2703 20.9037 13.5528C21.5862 13.8354 22.2064 14.2496 22.7288 14.7719C23.2512 15.2941 23.6657 15.9141 23.9485 16.5965C24.2313 17.2789 24.3769 18.0104 24.377 18.7491C24.3771 19.4877 24.2318 20.2192 23.9492 20.9017C23.6666 21.5842 23.2524 22.2044 22.7301 22.7268C22.2079 23.2492 21.5879 23.6637 20.9055 23.9465C20.2231 24.2293 19.4916 24.3749 18.7529 24.375C17.2611 24.375 15.8304 23.7824 14.7755 22.7275C13.7206 21.6726 13.1279 20.2418 13.1279 18.75C13.1279 17.2582 13.7206 15.8274 14.7755 14.7725C15.8304 13.7176 17.2611 13.125 18.7529 13.125M28.5967 6.5625C27.9751 6.5625 27.3789 6.80943 26.9394 7.24897C26.4999 7.68851 26.2529 8.28465 26.2529 8.90625C26.2529 9.52785 26.4999 10.124 26.9394 10.5635C27.3789 11.0031 27.9751 11.25 28.5967 11.25C29.2183 11.25 29.8144 11.0031 30.254 10.5635C30.6935 10.124 30.9404 9.52785 30.9404 8.90625C30.9404 8.28465 30.6935 7.68851 30.254 7.24897C29.8144 6.80943 29.2183 6.5625 28.5967 6.5625Z" fill="black"/>
</svg>
