<svg width="525" height="525" viewBox="0 0 525 525" fill="none" xmlns="http://www.w3.org/2000/svg">
<g clip-path="url(#clip0_241_747)">
<path d="M244.039 0L520.692 159.562L288.801 185.664L244.039 0Z" fill="black"/>
<path d="M60.7286 185.664L222.549 3.78906L251.911 128.966L60.7286 185.664Z" fill="black"/>
<path d="M255.919 146.51L61.8533 204.359L340.05 363.749L345.254 197.525L270.88 205.335L255.919 146.51Z" fill="black"/>
<path d="M368.049 194.961L525.19 176.823L363.247 358.697L368.049 194.961Z" fill="black"/>
<path d="M506.972 204.609L519.567 212.122L498.2 214.713L506.972 204.609Z" fill="black"/>
<path d="M479.76 235.017L524.066 229.869L362.123 411.744L363.432 365.417L479.76 235.017Z" fill="black"/>
<path d="M505.981 256.393L517.318 263.899L498.2 266.497L505.981 256.393Z" fill="black"/>
<path d="M479.476 286.555L521.816 281.653L359.873 463.527L361.183 419.162L479.476 286.555Z" fill="black"/>
<path d="M339.236 416.796L340.755 369.558L116.083 241.236L60.7286 257.794L339.236 416.796Z" fill="black"/>
<path d="M111.623 293.02L338.506 422.431L336.98 468.579L57.3547 309.135L111.623 293.02Z" fill="black"/>
<path d="M75.2154 218.502L91.093 228.347L58.4795 238.71L75.2154 218.502Z" fill="black"/>
<path d="M73.5306 271.549L88.8438 280.643L57.3548 290.494L73.5306 271.549Z" fill="black"/>
<path d="M244.039 0L520.692 159.562L288.801 185.664L244.039 0Z" stroke="black"/>
<path d="M60.7286 185.664L222.549 3.78906L251.911 128.966L60.7286 185.664Z" stroke="black"/>
<path d="M255.919 146.51L61.8533 204.359L340.05 363.749L345.254 197.525L270.88 205.335L255.919 146.51Z" stroke="black"/>
<path d="M368.049 194.961L525.19 176.823L363.247 358.697L368.049 194.961Z" stroke="black"/>
<path d="M506.972 204.609L519.567 212.122L498.2 214.713L506.972 204.609Z" stroke="black"/>
<path d="M479.76 235.017L524.066 229.869L362.123 411.744L363.432 365.417L479.76 235.017Z" stroke="black"/>
<path d="M505.981 256.393L517.318 263.899L498.2 266.497L505.981 256.393Z" stroke="black"/>
<path d="M479.476 286.555L521.816 281.653L359.873 463.527L361.183 419.162L479.476 286.555Z" stroke="black"/>
<path d="M339.236 416.796L340.755 369.558L116.083 241.236L60.7286 257.794L339.236 416.796Z" stroke="black"/>
<path d="M111.623 293.02L338.506 422.431L336.98 468.579L57.3547 309.135L111.623 293.02Z" stroke="black"/>
<path d="M75.2154 218.502L91.093 228.347L58.4795 238.71L75.2154 218.502Z" stroke="black"/>
<path d="M73.5306 271.549L88.8438 280.643L57.3548 290.494L73.5306 271.549Z" stroke="black"/>
</g>
<defs>
<clipPath id="clip0_241_747">
<rect width="525" height="525" fill="white" transform="matrix(-1 0 0 1 525 0)"/>
</clipPath>
</defs>
</svg>
