<svg width="1800" height="1800" viewBox="0 0 1800 1800" fill="none" xmlns="http://www.w3.org/2000/svg">
<circle cx="900" cy="900" r="900" fill="#F58F32"/>
<path d="M1006.5 420L373 744L904 797L1006.5 420Z" fill="black"/>
<path d="M1431 797L1059 426.5L991.5 681.5L1431 797Z" fill="black"/>
<path d="M981.5 719.5L1429 838L787.5 1164.5L775.5 824L947 840L981.5 719.5Z" fill="black"/>
<path d="M722 818.5L362 781.5L733 1152.5L722 818.5Z" fill="black"/>
<path d="M404 838.5L376 853L423.5 858L404 838.5Z" fill="black"/>
<path d="M466.5 901L365 890.5L736 1261.5L733 1167L466.5 901Z" fill="black"/>
<path d="M405.5 946L380 959L423 963.5L405.5 946Z" fill="black"/>
<path d="M466 1006.5L369 996.5L740 1367.5L737 1277L466 1006.5Z" fill="black"/>
<path d="M790.5 1273.5L787 1176.5L1304.5 913L1432 947L790.5 1273.5Z" fill="black"/>
<path d="M1311.5 1020L791 1285L794.5 1379.5L1436 1053L1311.5 1020Z" fill="black"/>
<path d="M1395 867L1358 886L1434 906L1395 867Z" fill="black"/>
<path d="M1400.5 974.5L1365 992.5L1438 1012L1400.5 974.5Z" fill="black"/>
<path d="M1006.5 420L373 744L904 797L1006.5 420Z" stroke="black"/>
<path d="M1431 797L1059 426.5L991.5 681.5L1431 797Z" stroke="black"/>
<path d="M981.5 719.5L1429 838L787.5 1164.5L775.5 824L947 840L981.5 719.5Z" stroke="black"/>
<path d="M722 818.5L362 781.5L733 1152.5L722 818.5Z" stroke="black"/>
<path d="M404 838.5L376 853L423.5 858L404 838.5Z" stroke="black"/>
<path d="M466.5 901L365 890.5L736 1261.5L733 1167L466.5 901Z" stroke="black"/>
<path d="M405.5 946L380 959L423 963.5L405.5 946Z" stroke="black"/>
<path d="M466 1006.5L369 996.5L740 1367.5L737 1277L466 1006.5Z" stroke="black"/>
<path d="M790.5 1273.5L787 1176.5L1304.5 913L1432 947L790.5 1273.5Z" stroke="black"/>
<path d="M1311.5 1020L791 1285L794.5 1379.5L1436 1053L1311.5 1020Z" stroke="black"/>
<path d="M1395 867L1358 886L1434 906L1395 867Z" stroke="black"/>
<path d="M1400.5 974.5L1365 992.5L1438 1012L1400.5 974.5Z" stroke="black"/>
</svg>
