<svg width="1998" height="326" viewBox="0 0 1998 326" fill="none" xmlns="http://www.w3.org/2000/svg">
<path d="M1824.5 69.949H1857V91.4492L1964.84 213.25V69.82H1997.31V1H1824.5V69.949Z" fill="black"/>
<path d="M1857 115.949L1965 237.449V255.949H1997.5L1997.31 324.949H1824.5V255.949H1857V115.949Z" fill="black"/>
<path d="M1824.5 69.949H1857V91.4492L1964.84 213.25V69.82H1997.31V1H1824.5V69.949Z" stroke="black"/>
<path d="M1857 115.949L1965 237.449V255.949H1997.5L1997.31 324.949H1824.5V255.949H1857V115.949Z" stroke="black"/>
<path d="M115 1H1L197.5 325H312L115 1Z" fill="black"/>
<path d="M95 186L1 32V325H95V186Z" fill="black"/>
<path d="M312.067 1H218V139.5L312.067 294.2V1Z" fill="black"/>
<path d="M590 144.5L542 15.5L426.379 325H530.5L590 144.5Z" fill="black"/>
<path d="M640.5 225.5L554 1H659L788.5 325H788H679L665.5 289.5H559.5L582 225.5H640.5Z" fill="black"/>
<path d="M947 1H837L954 325H1059L947 1Z" fill="black"/>
<path d="M1184.25 1H1076L1023.5 172.5L1072 315.5L1184.25 1Z" fill="black"/>
<path d="M1396.5 200L1295.5 31V325L1396.5 324.946V200Z" fill="black"/>
<path d="M1410.5 1H1296L1488 325L1566 191V28L1497.5 145L1410.5 1Z" fill="black"/>
<path d="M1690 1H1582L1581.81 325H1689.5L1690 1Z" fill="black"/>
<path d="M115 1H1L197.5 325H312L115 1Z" stroke="black"/>
<path d="M95 186L1 32V325H95V186Z" stroke="black"/>
<path d="M312.067 1H218V139.5L312.067 294.2V1Z" stroke="black"/>
<path d="M590 144.5L542 15.5L426.379 325H530.5L590 144.5Z" stroke="black"/>
<path d="M640.5 225.5L554 1H659L788.5 325H788H679L665.5 289.5H559.5L582 225.5H640.5Z" stroke="black"/>
<path d="M947 1H837L954 325H1059L947 1Z" stroke="black"/>
<path d="M1184.25 1H1076L1023.5 172.5L1072 315.5L1184.25 1Z" stroke="black"/>
<path d="M1396.5 200L1295.5 31V325L1396.5 324.946V200Z" stroke="black"/>
<path d="M1410.5 1H1296L1488 325L1566 191V28L1497.5 145L1410.5 1Z" stroke="black"/>
<path d="M1690 1H1582L1581.81 325H1689.5L1690 1Z" stroke="black"/>
</svg>
