<svg id="Layer_1" data-name="Layer 1" xmlns="http://www.w3.org/2000/svg" width="1086.34" height="326.8" viewBox="0 0 1086.34 326.8">
  <defs>
    <style>
      .cls-1 {
        fill: none;
        stroke: #000;
        stroke-width: 0.33px;
      }
    </style>
  </defs>
  <g>
    <path d="M581.06,315.45,515.42,207.12h38.13l65.88,108.33Zm38.37-10.28L588,253.41V207.12h31.43Zm-104,10.28v-98l31.43,51.52v46.53Zm226.73,0-4.57-11.83H702.14l7.52-21.48h19.59l-29-75h35.18l43.19,108.33Zm-84.5,0L696.35,212l16,43-19.84,60.41Zm176.44,0L794.9,207.12h36.82l37.47,108.33Zm39.51-3.26-16.24-47.68,17.47-57.39h36.25Zm139,3.26L948.4,207.12h38.37l29.06,48.17,22.86-39.19v54.53Zm31.35,0V207.12h36.09V315.45Zm-95.68,0V217.16L982,273.73v41.72Zm177,0v-23.1h10.85V230.14h-10.85v-23h57.8v23h-10.86v62.21h10.86v23.1Z" transform="translate(-96.79 -97.1)"/>
    <path d="M314.76,97.43,101,207.58l179.21,18Z" transform="translate(-96.79 -97.1)"/>
    <path d="M458,225.6l-125.55-126-22.79,86.69Z" transform="translate(-96.79 -97.1)"/>
    <path d="M306.32,199.25l151,40.29-216.51,111-4.05-115.76,57.89,5.43Z" transform="translate(-96.79 -97.1)"/>
    <path d="M218.74,232.91,97.23,220.33,222.45,346.46Z" transform="translate(-96.79 -97.1)"/>
    <path d="M111.41,239.71,102,244.63l16,1.7Z" transform="translate(-96.79 -97.1)"/>
    <path d="M132.5,261l-34.25-3.56L223.46,383.51l-1-32.12Z" transform="translate(-96.79 -97.1)"/>
    <path d="M111.91,276.25l-8.6,4.42,14.51,1.53Z" transform="translate(-96.79 -97.1)"/>
    <path d="M132.34,296.82l-32.74-3.4L224.81,419.55l-1-30.77Z" transform="translate(-96.79 -97.1)"/>
    <path d="M241.85,387.59l-1.18-33L415.33,265l43,11.56Z" transform="translate(-96.79 -97.1)"/>
    <path d="M417.7,301.41,242,391.5l1.18,32.13,216.51-111Z" transform="translate(-96.79 -97.1)"/>
    <path d="M445.88,249.39l-12.49,6.46,25.65,6.8Z" transform="translate(-96.79 -97.1)"/>
    <path d="M447.73,285.94l-12,6.12,24.64,6.63Z" transform="translate(-96.79 -97.1)"/>
    <path class="cls-1" d="M314.76,97.43,101,207.58l179.21,18Z" transform="translate(-96.79 -97.1)"/>
    <path class="cls-1" d="M458,225.6l-125.55-126-22.79,86.69Z" transform="translate(-96.79 -97.1)"/>
    <path class="cls-1" d="M306.32,199.25l151,40.29-216.51,111-4.05-115.76,57.89,5.43Z" transform="translate(-96.79 -97.1)"/>
    <path class="cls-1" d="M218.74,232.91,97.23,220.33,222.45,346.46Z" transform="translate(-96.79 -97.1)"/>
    <path class="cls-1" d="M111.41,239.71,102,244.63l16,1.7Z" transform="translate(-96.79 -97.1)"/>
    <path class="cls-1" d="M132.5,261l-34.25-3.56L223.46,383.51l-1-32.12Z" transform="translate(-96.79 -97.1)"/>
    <path class="cls-1" d="M111.91,276.25l-8.6,4.42,14.51,1.53Z" transform="translate(-96.79 -97.1)"/>
    <path class="cls-1" d="M132.34,296.82l-32.74-3.4L224.81,419.55l-1-30.77Z" transform="translate(-96.79 -97.1)"/>
    <path class="cls-1" d="M241.85,387.59l-1.18-33L415.33,265l43,11.56Z" transform="translate(-96.79 -97.1)"/>
    <path class="cls-1" d="M417.7,301.41,242,391.5l1.18,32.13,216.51-111Z" transform="translate(-96.79 -97.1)"/>
    <path class="cls-1" d="M445.88,249.39l-12.49,6.46,25.65,6.8Z" transform="translate(-96.79 -97.1)"/>
    <path class="cls-1" d="M447.73,285.94l-12,6.12,24.64,6.63Z" transform="translate(-96.79 -97.1)"/>
    <path d="M1124.67,229.5h10.87v7.19l36.06,40.73v-48h10.86v-23h-57.79Z" transform="translate(-96.79 -97.1)"/>
    <path d="M1135.54,244.88l36.12,40.63v6.18h10.87l-.07,23.08h-57.79V291.69h10.87Z" transform="translate(-96.79 -97.1)"/>
    <path class="cls-1" d="M1124.67,229.5h10.87v7.19l36.06,40.73v-48h10.86v-23h-57.79Z" transform="translate(-96.79 -97.1)"/>
    <path class="cls-1" d="M1135.54,244.88l36.12,40.63v6.18h10.87l-.07,23.08h-57.79V291.69h10.87Z" transform="translate(-96.79 -97.1)"/>
    <path d="M553,206.44H514.9l65.71,108.34H618.9Z" transform="translate(-96.79 -97.1)"/>
    <path d="M546.33,268.3,514.9,216.81v98h31.43Z" transform="translate(-96.79 -97.1)"/>
    <path d="M618.92,206.44H587.46v46.31l31.46,51.74Z" transform="translate(-96.79 -97.1)"/>
    <path d="M711.86,254.43l-16.05-43.14L657.14,314.78H692Z" transform="translate(-96.79 -97.1)"/>
    <path d="M728.75,281.51l-28.93-75.07h35.11l43.31,108.34H741.62l-4.51-11.87H701.66l7.52-21.4Z" transform="translate(-96.79 -97.1)"/>
    <path d="M831.24,206.44H794.46l39.12,108.34h35.11Z" transform="translate(-96.79 -97.1)"/>
    <path d="M910.58,206.44h-36.2l-17.56,57.35L873,311.61Z" transform="translate(-96.79 -97.1)"/>
    <path d="M981.55,273l-33.77-56.51v98.31h33.77Z" transform="translate(-96.79 -97.1)"/>
    <path d="M986.23,206.44H947.94l64.21,108.34,26.08-44.8V215.47l-22.9,39.12Z" transform="translate(-96.79 -97.1)"/>
    <path d="M1079.7,206.44h-36.12l-.06,108.34h36Z" transform="translate(-96.79 -97.1)"/>
    <path class="cls-1" d="M553,206.44H514.9l65.71,108.34H618.9Z" transform="translate(-96.79 -97.1)"/>
    <path class="cls-1" d="M546.33,268.3,514.9,216.81v98h31.43Z" transform="translate(-96.79 -97.1)"/>
    <path class="cls-1" d="M618.92,206.44H587.46v46.31l31.46,51.74Z" transform="translate(-96.79 -97.1)"/>
    <path class="cls-1" d="M711.86,254.43l-16.05-43.14L657.14,314.78H692Z" transform="translate(-96.79 -97.1)"/>
    <path class="cls-1" d="M728.75,281.51l-28.93-75.07h35.11l43.31,108.34H741.62l-4.51-11.87H701.66l7.52-21.4Z" transform="translate(-96.79 -97.1)"/>
    <path class="cls-1" d="M831.24,206.44H794.46l39.12,108.34h35.11Z" transform="translate(-96.79 -97.1)"/>
    <path class="cls-1" d="M910.58,206.44h-36.2l-17.56,57.35L873,311.61Z" transform="translate(-96.79 -97.1)"/>
    <path class="cls-1" d="M981.55,273l-33.77-56.51v98.31h33.77Z" transform="translate(-96.79 -97.1)"/>
    <path class="cls-1" d="M986.23,206.44H947.94l64.21,108.34,26.08-44.8V215.47l-22.9,39.12Z" transform="translate(-96.79 -97.1)"/>
    <path class="cls-1" d="M1079.7,206.44h-36.12l-.06,108.34h36Z" transform="translate(-96.79 -97.1)"/>
  </g>
</svg>
