<svg width="1080" height="962" viewBox="0 0 1080 962" fill="none" xmlns="http://www.w3.org/2000/svg">
<path d="M646.5 1L13 325L544 378L646.5 1Z" fill="black"/>
<path d="M1071 378L699 7.5L631.5 262.5L1071 378Z" fill="black"/>
<path d="M621.5 300.5L1069 419L427.5 745.5L415.5 405L587 421L621.5 300.5Z" fill="black"/>
<path d="M362 399.5L2 362.5L373 733.5L362 399.5Z" fill="black"/>
<path d="M44 419.5L16 434L63.5 439L44 419.5Z" fill="black"/>
<path d="M106.5 482L5 471.5L376 842.5L373 748L106.5 482Z" fill="black"/>
<path d="M45.5 527L20 540L63 544.5L45.5 527Z" fill="black"/>
<path d="M106 587.5L9 577.5L380 948.5L377 858L106 587.5Z" fill="black"/>
<path d="M430.5 854.5L427 757.5L944.5 494L1072 528L430.5 854.5Z" fill="black"/>
<path d="M951.5 601L431 866L434.5 960.5L1076 634L951.5 601Z" fill="black"/>
<path d="M1035 448L998 467L1074 487L1035 448Z" fill="black"/>
<path d="M1040.5 555.5L1005 573.5L1078 593L1040.5 555.5Z" fill="black"/>
<path d="M646.5 1L13 325L544 378L646.5 1Z" stroke="black"/>
<path d="M1071 378L699 7.5L631.5 262.5L1071 378Z" stroke="black"/>
<path d="M621.5 300.5L1069 419L427.5 745.5L415.5 405L587 421L621.5 300.5Z" stroke="black"/>
<path d="M362 399.5L2 362.5L373 733.5L362 399.5Z" stroke="black"/>
<path d="M44 419.5L16 434L63.5 439L44 419.5Z" stroke="black"/>
<path d="M106.5 482L5 471.5L376 842.5L373 748L106.5 482Z" stroke="black"/>
<path d="M45.5 527L20 540L63 544.5L45.5 527Z" stroke="black"/>
<path d="M106 587.5L9 577.5L380 948.5L377 858L106 587.5Z" stroke="black"/>
<path d="M430.5 854.5L427 757.5L944.5 494L1072 528L430.5 854.5Z" stroke="black"/>
<path d="M951.5 601L431 866L434.5 960.5L1076 634L951.5 601Z" stroke="black"/>
<path d="M1035 448L998 467L1074 487L1035 448Z" stroke="black"/>
<path d="M1040.5 555.5L1005 573.5L1078 593L1040.5 555.5Z" stroke="black"/>
</svg>
