<svg width="26" height="24" viewBox="0 0 26 24" fill="none" xmlns="http://www.w3.org/2000/svg">
<path d="M12.5458 12.5L13.8043 14.0545L12.5458 12.5ZM25.0347 4.20933C25.1504 3.11083 24.3536 2.12658 23.2551 2.01096L5.35398 0.126743C4.25548 0.011118 3.27124 0.807897 3.15561 1.9064C3.03999 3.0049 3.83676 3.98914 4.93527 4.10477L20.8474 5.77963L19.1725 21.6917C19.0569 22.7902 19.8537 23.7745 20.9522 23.8901C22.0507 24.0057 23.0349 23.2089 23.1505 22.1104L25.0347 4.20933ZM3.30437 22.5545L13.8043 14.0545L11.2874 10.9455L0.787555 19.4455L3.30437 22.5545ZM13.8043 14.0545L24.3041 5.55445L21.7873 2.44549L11.2874 10.9455L13.8043 14.0545Z" fill="#FFFEFE"/>
</svg>
